<?xml version="1.0" encoding="utf-8"?>
<!-- Generator: Adobe Illustrator 22.1.0, SVG Export Plug-In . SVG Version: 6.00 Build 0)  -->
<svg version="1.1" baseProfile="tiny" id="Layer_4" xmlns="http://www.w3.org/2000/svg" xmlns:xlink="http://www.w3.org/1999/xlink"
	 x="0px" y="0px" viewBox="0 0 16 16" xml:space="preserve">
<path d="M11,9v3c0,1.1-0.9,2-2,2H4c-1.1,0-2-0.9-2-2V7c0-1.1,0.9-2,2-2h3V4H4C2.3,4,1,5.3,1,7v5c0,1.6,1.3,3,3,3h5c1.7,0,3-1.4,3-3
	V9H11z"/>
<polygon points="14,1 10,1 10,2 13.3,2 6.9,8.3 7.7,9.1 14,2.7 14,6 15,6 15,2 15,1 "/>
</svg>
